<svg width="135" height="40" viewBox="0 0 135 40" fill="none" xmlns="http://www.w3.org/2000/svg">
<path d="M130 40H5C2.2 40 0 37.8 0 35V5C0 2.2 2.2 0 5 0H130C132.8 0 135 2.2 135 5V35C135 37.7 132.8 40 130 40Z" fill="black"/>
<path d="M130 0.8C132.3 0.8 134.2 2.7 134.2 5V35C134.2 37.3 132.3 39.2 130 39.2H5C2.7 39.2 0.8 37.3 0.8 35V5C0.8 2.7 2.7 0.8 5 0.8H130ZM130 0H5C2.2 0 0 2.2 0 5V35C0 37.8 2.2 40 5 40H130C132.8 40 135 37.8 135 35V5C135 2.3 132.8 0 130 0Z" fill="#A6A6A6"/>
<path d="M68.1001 21.8001C65.7001 21.8001 63.8001 23.6001 63.8001 26.1001C63.8001 28.5001 65.7001 30.4001 68.1001 30.4001C70.5001 30.4001 72.4001 28.6001 72.4001 26.1001C72.4001 23.5001 70.5001 21.8001 68.1001 21.8001ZM68.1001 28.6001C66.8001 28.6001 65.7001 27.5001 65.7001 26.0001C65.7001 24.5001 66.8001 23.4001 68.1001 23.4001C69.4001 23.4001 70.5001 24.4001 70.5001 26.0001C70.5001 27.5001 69.4001 28.6001 68.1001 28.6001ZM58.8001 21.8001C56.4001 21.8001 54.5001 23.6001 54.5001 26.1001C54.5001 28.5001 56.4001 30.4001 58.8001 30.4001C61.2001 30.4001 63.1001 28.6001 63.1001 26.1001C63.1001 23.5001 61.2001 21.8001 58.8001 21.8001ZM58.8001 28.6001C57.5001 28.6001 56.4001 27.5001 56.4001 26.0001C56.4001 24.5001 57.5001 23.4001 58.8001 23.4001C60.1001 23.4001 61.2001 24.4001 61.2001 26.0001C61.2001 27.5001 60.1001 28.6001 58.8001 28.6001ZM47.7001 23.1001V24.9001H52.0001C51.9001 25.9001 51.5001 26.7001 51.0001 27.2001C50.4001 27.8001 49.4001 28.5001 47.7001 28.5001C45.0001 28.5001 43.0001 26.4001 43.0001 23.7001C43.0001 21.0001 45.1001 18.9001 47.7001 18.9001C49.1001 18.9001 50.2001 19.5001 51.0001 20.2001L52.3001 18.9001C51.2001 17.9001 49.8001 17.1001 47.8001 17.1001C44.2001 17.1001 41.1001 20.1001 41.1001 23.7001C41.1001 27.3001 44.2001 30.3001 47.8001 30.3001C49.8001 30.3001 51.2001 29.7001 52.4001 28.4001C53.6001 27.2001 54.0001 25.5001 54.0001 24.2001C54.0001 23.8001 54.0001 23.4001 53.9001 23.1001H47.7001ZM93.1001 24.5001C92.7001 23.5001 91.7001 21.8001 89.5001 21.8001C87.3001 21.8001 85.5001 23.5001 85.5001 26.1001C85.5001 28.5001 87.3001 30.4001 89.7001 30.4001C91.6001 30.4001 92.8001 29.2001 93.2001 28.5001L91.8001 27.5001C91.3001 28.2001 90.7001 28.7001 89.7001 28.7001C88.7001 28.7001 88.1001 28.3001 87.6001 27.4001L93.3001 25.0001L93.1001 24.5001ZM87.3001 25.9001C87.3001 24.3001 88.6001 23.4001 89.5001 23.4001C90.2001 23.4001 90.9001 23.8001 91.1001 24.3001L87.3001 25.9001ZM82.6001 30.0001H84.5001V17.5001H82.6001V30.0001ZM79.6001 22.7001C79.1001 22.2001 78.3001 21.7001 77.3001 21.7001C75.2001 21.7001 73.2001 23.6001 73.2001 26.0001C73.2001 28.4001 75.1001 30.2001 77.3001 30.2001C78.3001 30.2001 79.1001 29.7001 79.5001 29.2001H79.6001V29.8001C79.6001 31.4001 78.7001 32.3001 77.3001 32.3001C76.2001 32.3001 75.4001 31.5001 75.2001 30.8001L73.6001 31.5001C74.1001 32.6001 75.3001 34.0001 77.4001 34.0001C79.6001 34.0001 81.4001 32.7001 81.4001 29.6001V22.0001H79.6001V22.7001ZM77.4001 28.6001C76.1001 28.6001 75.0001 27.5001 75.0001 26.0001C75.0001 24.5001 76.1001 23.4001 77.4001 23.4001C78.7001 23.4001 79.7001 24.5001 79.7001 26.0001C79.7001 27.5001 78.7001 28.6001 77.4001 28.6001ZM101.8 17.5001H97.3001V30.0001H99.2001V25.3001H101.8C103.9 25.3001 105.9 23.8001 105.9 21.4001C105.9 19.0001 103.9 17.5001 101.8 17.5001ZM101.9 23.5001H99.2001V19.2001H101.9C103.3 19.2001 104.1 20.4001 104.1 21.3001C104 22.4001 103.2 23.5001 101.9 23.5001ZM113.4 21.7001C112 21.7001 110.6 22.3001 110.1 23.6001L111.8 24.3001C112.2 23.6001 112.8 23.4001 113.5 23.4001C114.5 23.4001 115.4 24.0001 115.5 25.0001V25.1001C115.2 24.9001 114.4 24.6001 113.6 24.6001C111.8 24.6001 110 25.6001 110 27.4001C110 29.1001 111.5 30.2001 113.1 30.2001C114.4 30.2001 115 29.6001 115.5 29.0001H115.6V30.0001H117.4V25.2001C117.2 23.0001 115.5 21.7001 113.4 21.7001ZM113.2 28.6001C112.6 28.6001 111.7 28.3001 111.7 27.5001C111.7 26.5001 112.8 26.2001 113.7 26.2001C114.5 26.2001 114.9 26.4001 115.4 26.6001C115.2 27.8001 114.2 28.6001 113.2 28.6001ZM123.7 22.0001L121.6 27.4001H121.5L119.3 22.0001H117.3L120.6 29.6001L118.7 33.8001H120.6L125.7 22.0001H123.7ZM106.9 30.0001H108.8V17.5001H106.9V30.0001Z" fill="white"/>
<path d="M10.3999 7.5C10.0999 7.8 9.8999 8.3 9.8999 8.9V31C9.8999 31.6 10.0999 32.1 10.3999 32.4L10.4999 32.5L22.8999 20.1V20V19.9L10.3999 7.5Z" fill="url(#paint0_linear)"/>
<path d="M26.9999 24.2998L22.8999 20.1998V19.9998V19.8998L26.9999 15.7998L27.0999 15.8998L31.9999 18.6998C33.3999 19.4998 33.3999 20.7998 31.9999 21.5998L26.9999 24.2998Z" fill="url(#paint1_linear)"/>
<path d="M27.0999 24.2L22.8999 20L10.3999 32.5C10.8999 33 11.5999 33 12.4999 32.6L27.0999 24.2Z" fill="url(#paint2_linear)"/>
<path d="M27.0999 15.8001L12.4999 7.50011C11.5999 7.00011 10.8999 7.10011 10.3999 7.60011L22.8999 20.0001L27.0999 15.8001Z" fill="url(#paint3_linear)"/>
<path opacity="0.2" d="M26.9999 24.1001L12.4999 32.3001C11.6999 32.8001 10.9999 32.7001 10.4999 32.3001L10.3999 32.4001L10.4999 32.5001C10.9999 32.9001 11.6999 33.0001 12.4999 32.5001L26.9999 24.1001Z" fill="black"/>
<path opacity="0.12" d="M10.4 32.2999C10.1 31.9999 10 31.4999 10 30.8999V30.9999C10 31.5999 10.2 32.0999 10.5 32.3999V32.2999H10.4Z" fill="black"/>
<path opacity="0.12" d="M32 21.3L27 24.1L27.1 24.2L32 21.4C32.7 21 33 20.5 33 20C33 20.5 32.6 20.9 32 21.3Z" fill="black"/>
<path opacity="0.25" d="M12.5 7.59988L32 18.6999C32.6 19.0999 33 19.4999 33 19.9999C33 19.4999 32.7 18.9999 32 18.5999L12.5 7.49988C11.1 6.69988 10 7.39988 10 8.99988V9.09988C10 7.49988 11.1 6.79988 12.5 7.59988Z" fill="white"/>
<path d="M43.7002 13H42.9002V7.7H41.2002V7H45.3002V7.7H43.6002V13H43.7002Z" fill="white" stroke="white" stroke-width="0.2" stroke-miterlimit="10"/>
<path d="M49.8003 7.7H47.1003V9.6H49.6003V10.3H47.1003V12.2H49.8003V13H46.3003V7H49.8003V7.7Z" fill="white" stroke="white" stroke-width="0.2" stroke-miterlimit="10"/>
<path d="M51 13V7H51.8L53.9 10.7L56 7H56.8V13H56V9.4V8.4L54.1 11.7H53.6L51.7 8.4V9.4V13H51Z" fill="white" stroke="white" stroke-width="0.2" stroke-miterlimit="10"/>
<path d="M60.3001 13.1C59.6001 13.1 59.1001 12.9 58.7001 12.4C58.3001 12 58.1001 11.4 58.1001 10.7V7H58.9001V10.8C58.9001 11.3 59.0001 11.7 59.3001 12C59.5001 12.3 59.9001 12.4 60.4001 12.4C60.9001 12.4 61.2001 12.3 61.5001 12C61.7001 11.7 61.9001 11.3 61.9001 10.8V7H62.7001V10.8C62.7001 11.5 62.5001 12.1 62.1001 12.5C61.5001 12.9 60.9001 13.1 60.3001 13.1Z" fill="white" stroke="white" stroke-width="0.2" stroke-miterlimit="10"/>
<path d="M68.2003 7L66.0003 9.6L68.4003 13H67.5003L65.5003 10.2L64.6003 11.3V13H63.8003V7H64.6003V10.1L67.2003 7H68.2003Z" fill="white" stroke="white" stroke-width="0.2" stroke-miterlimit="10"/>
<path d="M68.6001 13L70.9001 7H71.8001L74.1001 13H73.2001L72.6001 11.4H70.0001L69.4001 13H68.6001ZM70.3001 10.7H72.3001L71.3001 8L70.3001 10.7Z" fill="white" stroke="white" stroke-width="0.2" stroke-miterlimit="10"/>
<path d="M74.9004 13V7H75.8004L78.7004 11.7V10.5V7H79.5004V13H78.7004L75.6004 8.1V9.3V13H74.9004Z" fill="white" stroke="white" stroke-width="0.2" stroke-miterlimit="10"/>
<path d="M82.9004 13V7H84.7004C85.6004 7 86.4004 7.3 86.9004 7.8C87.5004 8.4 87.7004 9.1 87.7004 10C87.7004 10.9 87.4004 11.6 86.9004 12.2C86.3004 12.8 85.6004 13 84.7004 13H82.9004ZM83.6004 12.3H84.7004C85.4004 12.3 85.9004 12.1 86.3004 11.7C86.7004 11.3 86.9004 10.7 86.9004 10C86.9004 9.3 86.7004 8.7 86.3004 8.3C85.9004 7.9 85.3004 7.7 84.7004 7.7H83.6004V12.3Z" fill="white" stroke="white" stroke-width="0.2" stroke-miterlimit="10"/>
<path d="M88.8003 13V7H89.6003V13H88.8003Z" fill="white" stroke="white" stroke-width="0.2" stroke-miterlimit="10"/>
<defs>
<linearGradient id="paint0_linear" x1="21.7996" y1="8.7097" x2="5.0172" y2="25.4921" gradientUnits="userSpaceOnUse">
<stop stop-color="#00A0FF"/>
<stop offset="0.00657445" stop-color="#00A1FF"/>
<stop offset="0.2601" stop-color="#00BEFF"/>
<stop offset="0.5122" stop-color="#00D2FF"/>
<stop offset="0.7604" stop-color="#00DFFF"/>
<stop offset="1" stop-color="#00E3FF"/>
</linearGradient>
<linearGradient id="paint1_linear" x1="33.8343" y1="20.0012" x2="9.6374" y2="20.0012" gradientUnits="userSpaceOnUse">
<stop stop-color="#FFE000"/>
<stop offset="0.4087" stop-color="#FFBD00"/>
<stop offset="0.7754" stop-color="#FFA500"/>
<stop offset="1" stop-color="#FF9C00"/>
</linearGradient>
<linearGradient id="paint2_linear" x1="24.8269" y1="22.2961" x2="2.0686" y2="45.0544" gradientUnits="userSpaceOnUse">
<stop stop-color="#FF3A44"/>
<stop offset="1" stop-color="#C31162"/>
</linearGradient>
<linearGradient id="paint3_linear" x1="7.2972" y1="0.176312" x2="17.4598" y2="10.3388" gradientUnits="userSpaceOnUse">
<stop stop-color="#32A071"/>
<stop offset="0.0685" stop-color="#2DA771"/>
<stop offset="0.4762" stop-color="#15CF74"/>
<stop offset="0.8009" stop-color="#06E775"/>
<stop offset="1" stop-color="#00F076"/>
</linearGradient>
</defs>
</svg>
