<svg width="120" height="40" viewBox="0 0 120 40" fill="none" xmlns="http://www.w3.org/2000/svg">
<g clip-path="url(#clip0)">
<path d="M110.135 0.00013H9.53468C9.16798 0.00013 8.80568 0.00013 8.43995 0.00213C8.1338 0.00413 7.83009 0.00994 7.521 0.01483C6.84951 0.0227318 6.17961 0.0818063 5.5171 0.19154C4.85552 0.303663 4.21467 0.515046 3.61622 0.81854C3.0185 1.1246 2.47235 1.5223 1.99757 1.9972C1.5203 2.47077 1.12246 3.01815 0.81935 3.61829C0.5154 4.21724 0.304641 4.85907 0.19435 5.52161C0.0830109 6.18332 0.0230984 6.85265 0.01515 7.52361C0.00587 7.83021 0.00489 8.13783 0 8.44447V31.5587C0.00489 31.8692 0.00587 32.17 0.01515 32.4806C0.0231008 33.1516 0.0830134 33.8209 0.19435 34.4825C0.304336 35.1455 0.515108 35.7877 0.81935 36.3868C1.12233 36.985 1.52022 37.5302 1.99757 38.0011C2.47054 38.4781 3.01705 38.8761 3.61622 39.1798C4.21467 39.4841 4.85545 39.6968 5.5171 39.8106C6.17972 39.9195 6.84956 39.9786 7.521 39.9874C7.83009 39.9942 8.1338 39.9981 8.43995 39.9981C8.80567 40.0001 9.168 40.0001 9.53468 40.0001H110.135C110.494 40.0001 110.859 40.0001 111.219 39.9981C111.523 39.9981 111.836 39.9942 112.141 39.9874C112.811 39.9791 113.479 39.92 114.141 39.8106C114.804 39.696 115.448 39.4834 116.049 39.1798C116.647 38.8759 117.193 38.478 117.666 38.0011C118.142 37.5284 118.541 36.9836 118.848 36.3868C119.15 35.7872 119.358 35.1451 119.467 34.4825C119.578 33.8208 119.64 33.1516 119.652 32.4806C119.656 32.17 119.656 31.8692 119.656 31.5587C119.664 31.1954 119.664 30.8341 119.664 30.4649V9.53626C119.664 9.17005 119.664 8.80677 119.656 8.44447C119.656 8.13783 119.656 7.83021 119.652 7.52357C119.64 6.85255 119.578 6.18337 119.467 5.52157C119.358 4.85941 119.149 4.21763 118.848 3.61825C118.23 2.41533 117.252 1.43616 116.049 0.81845C115.448 0.515697 114.804 0.30437 114.141 0.19145C113.48 0.0812328 112.811 0.0221378 112.141 0.01469C111.836 0.00981 111.523 0.00395 111.219 0.002C110.859 0 110.494 0 110.135 0V0.00013Z" fill="#A6A6A6"/>
<path d="M8.44487 39.125C8.14019 39.125 7.84287 39.1211 7.54058 39.1143C6.91436 39.1061 6.2896 39.0516 5.67144 38.9512C5.09503 38.8519 4.53664 38.6673 4.0147 38.4033C3.49754 38.1415 3.02585 37.7983 2.6177 37.3867C2.20364 36.98 1.85891 36.5082 1.59719 35.9902C1.33258 35.4688 1.14945 34.9099 1.05419 34.333C0.951311 33.7131 0.895651 33.0863 0.887687 32.458C0.881347 32.2471 0.873047 31.5449 0.873047 31.5449V8.44434C0.873047 8.44434 0.881887 7.75293 0.887737 7.5498C0.895363 6.92248 0.950699 6.29665 1.05327 5.67773C1.14871 5.09925 1.33197 4.53875 1.59673 4.01563C1.85749 3.49794 2.2003 3.02586 2.61187 2.61768C3.02297 2.20562 3.49617 1.8606 4.01421 1.59521C4.53495 1.33209 5.09228 1.14873 5.66753 1.05127C6.28772 0.949836 6.91465 0.894996 7.54304 0.88721L8.44536 0.875H111.214L112.127 0.8877C112.75 0.895099 113.371 0.94945 113.985 1.05029C114.566 1.14898 115.13 1.33362 115.656 1.59814C116.694 2.13299 117.539 2.97916 118.071 4.01807C118.332 4.53758 118.512 5.09351 118.607 5.66699C118.71 6.29099 118.768 6.92174 118.78 7.5542C118.783 7.8374 118.783 8.1416 118.783 8.44434C118.791 8.81934 118.791 9.17627 118.791 9.53613V30.4648C118.791 30.8281 118.791 31.1826 118.783 31.54C118.783 31.8652 118.783 32.1631 118.779 32.4697C118.768 33.0909 118.711 33.7104 118.608 34.3232C118.515 34.9043 118.333 35.4675 118.068 35.9932C117.805 36.5056 117.462 36.9733 117.053 37.3789C116.644 37.7927 116.172 38.1379 115.653 38.4014C115.128 38.6674 114.566 38.8527 113.985 38.9512C113.367 39.0522 112.742 39.1067 112.116 39.1143C111.823 39.1211 111.517 39.125 111.219 39.125L110.135 39.127L8.44487 39.125Z" fill="black"/>
<path d="M24.769 20.3008C24.7797 19.4662 25.0014 18.6478 25.4135 17.9218C25.8255 17.1959 26.4145 16.5859 27.1256 16.1488C26.6738 15.5036 26.0779 14.9727 25.385 14.5981C24.6922 14.2236 23.9216 14.0157 23.1344 13.9911C21.4552 13.8148 19.8272 14.9959 18.9715 14.9959C18.0992 14.9959 16.7817 14.0086 15.363 14.0378C14.4453 14.0674 13.551 14.3343 12.7671 14.8123C11.9832 15.2904 11.3365 15.9633 10.8901 16.7656C8.95607 20.1141 10.3987 25.0351 12.2513 27.7417C13.1782 29.0671 14.2615 30.5475 15.6789 30.495C17.066 30.4375 17.584 29.6105 19.2583 29.6105C20.9171 29.6105 21.4031 30.495 22.8493 30.4616C24.3377 30.4375 25.2754 29.1304 26.1698 27.7925C26.8358 26.8481 27.3483 25.8044 27.6882 24.7C26.8235 24.3343 26.0856 23.7221 25.5665 22.9398C25.0474 22.1575 24.77 21.2397 24.769 20.3008Z" fill="white"/>
<path d="M22.0376 12.2108C22.8491 11.2366 23.2489 9.98445 23.1521 8.72021C21.9123 8.85044 20.767 9.44299 19.9445 10.3798C19.5424 10.8375 19.2344 11.3699 19.0381 11.9467C18.8419 12.5235 18.7612 13.1333 18.8008 13.7412C19.4209 13.7476 20.0344 13.6132 20.5951 13.3481C21.1558 13.083 21.649 12.6942 22.0376 12.2108Z" fill="white"/>
<path d="M42.3022 27.1397H37.5688L36.4321 30.4961H34.4272L38.9106 18.0781H40.9936L45.477 30.4961H43.438L42.3022 27.1397ZM38.0591 25.5908H41.8111L39.9615 20.1436H39.9097L38.0591 25.5908Z" fill="white"/>
<path d="M55.1597 25.9699C55.1597 28.7834 53.6538 30.591 51.3814 30.591C50.8057 30.6211 50.2332 30.4885 49.7294 30.2084C49.2256 29.9283 48.8109 29.5119 48.5327 29.007H48.4897V33.4914H46.6313V21.4426H48.4302V22.9485H48.4644C48.7553 22.446 49.1771 22.0318 49.6847 21.7499C50.1923 21.4681 50.7669 21.3291 51.3472 21.3479C53.645 21.3479 55.1597 23.1643 55.1597 25.9699ZM53.2495 25.9699C53.2495 24.1369 52.3023 22.9319 50.857 22.9319C49.437 22.9319 48.482 24.1623 48.482 25.9699C48.482 27.7942 49.437 29.0158 50.857 29.0158C52.3023 29.0158 53.2495 27.8196 53.2495 25.9699Z" fill="white"/>
<path d="M65.1245 25.9699C65.1245 28.7834 63.6187 30.591 61.3462 30.591C60.7706 30.6211 60.1981 30.4885 59.6943 30.2084C59.1905 29.9283 58.7758 29.5119 58.4976 29.007H58.4546V33.4914H56.5962V21.4426H58.395V22.9484H58.4292C58.7201 22.446 59.1419 22.0318 59.6495 21.7499C60.1571 21.4681 60.7317 21.3291 61.312 21.3479C63.6099 21.3479 65.1245 23.1643 65.1245 25.9699ZM63.2144 25.9699C63.2144 24.1369 62.2671 22.9318 60.8218 22.9318C59.4019 22.9318 58.4468 24.1623 58.4468 25.9699C58.4468 27.7942 59.4019 29.0158 60.8218 29.0158C62.2671 29.0158 63.2144 27.8195 63.2144 25.9699H63.2144Z" fill="white"/>
<path d="M71.7105 27.0362C71.8482 28.2676 73.0445 29.0762 74.6792 29.0762C76.2456 29.0762 77.3726 28.2676 77.3726 27.1572C77.3726 26.1934 76.6929 25.6162 75.0835 25.2207L73.4742 24.833C71.1939 24.2822 70.1353 23.2158 70.1353 21.4854C70.1353 19.3428 72.0025 17.8711 74.6538 17.8711C77.2778 17.8711 79.0767 19.3428 79.1372 21.4854H77.2612C77.1489 20.2461 76.1245 19.4981 74.6274 19.4981C73.1304 19.4981 72.106 20.2549 72.106 21.3565C72.106 22.2344 72.7603 22.751 74.3608 23.1465L75.729 23.4824C78.2769 24.0849 79.3355 25.1084 79.3355 26.9248C79.3355 29.248 77.4849 30.7031 74.5415 30.7031C71.7876 30.7031 69.9282 29.2822 69.8081 27.0361L71.7105 27.0362Z" fill="white"/>
<path d="M83.3462 19.2998V21.4424H85.0679V22.9141H83.3462V27.9053C83.3462 28.6807 83.6909 29.042 84.4477 29.042C84.6521 29.0384 84.8562 29.0241 85.0591 28.999V30.4619C84.7188 30.5255 84.3729 30.5543 84.0268 30.5478C82.1938 30.5478 81.479 29.8593 81.479 28.1035V22.9141H80.1626V21.4424H81.479V19.2998H83.3462Z" fill="white"/>
<path d="M86.0649 25.9697C86.0649 23.1211 87.7427 21.3311 90.3589 21.3311C92.9839 21.3311 94.6538 23.1211 94.6538 25.9697C94.6538 28.8262 92.9927 30.6084 90.3589 30.6084C87.726 30.6084 86.0649 28.8262 86.0649 25.9697ZM92.7602 25.9697C92.7602 24.0156 91.8647 22.8623 90.3589 22.8623C88.853 22.8623 87.9585 24.0244 87.9585 25.9697C87.9585 27.9316 88.853 29.0762 90.3589 29.0762C91.8647 29.0762 92.7602 27.9316 92.7602 25.9697H92.7602Z" fill="white"/>
<path d="M96.186 21.4425H97.9585V22.9835H98.0015C98.1214 22.5022 98.4034 22.0769 98.8 21.779C99.1966 21.4811 99.6836 21.3288 100.179 21.3478C100.393 21.347 100.607 21.3703 100.816 21.4171V23.1554C100.546 23.0728 100.264 23.0348 99.981 23.0431C99.711 23.0321 99.4418 23.0797 99.192 23.1826C98.9421 23.2855 98.7175 23.4412 98.5335 23.6391C98.3496 23.837 98.2106 24.0724 98.1262 24.3291C98.0417 24.5857 98.0139 24.8576 98.0444 25.1261V30.4962H96.186L96.186 21.4425Z" fill="white"/>
<path d="M109.384 27.8369C109.134 29.4805 107.534 30.6084 105.486 30.6084C102.852 30.6084 101.217 28.8437 101.217 26.0127C101.217 23.1729 102.861 21.3311 105.408 21.3311C107.913 21.3311 109.488 23.0518 109.488 25.7969V26.4336H103.093V26.5459C103.064 26.8791 103.105 27.2148 103.216 27.5306C103.326 27.8464 103.502 28.1352 103.732 28.3778C103.963 28.6203 104.242 28.8111 104.552 28.9374C104.861 29.0637 105.195 29.1226 105.529 29.1103C105.968 29.1515 106.409 29.0498 106.785 28.8203C107.162 28.5909 107.455 28.246 107.62 27.8369L109.384 27.8369ZM103.102 25.1348H107.628C107.645 24.8352 107.6 24.5354 107.495 24.2541C107.39 23.9729 107.229 23.7164 107.02 23.5006C106.812 23.2849 106.561 23.1145 106.283 23.0003C106.006 22.8861 105.708 22.8305 105.408 22.8369C105.105 22.8351 104.805 22.8933 104.525 23.008C104.245 23.1227 103.99 23.2918 103.776 23.5054C103.562 23.7191 103.392 23.973 103.276 24.2527C103.16 24.5323 103.101 24.8321 103.102 25.1348V25.1348Z" fill="white"/>
<path d="M37.8262 8.73089C38.2158 8.70293 38.6067 8.76179 38.9709 8.90323C39.335 9.04466 39.6632 9.26514 39.9317 9.54876C40.2003 9.83239 40.4026 10.1721 40.524 10.5434C40.6454 10.9146 40.6829 11.3082 40.6338 11.6957C40.6338 13.602 39.6035 14.6977 37.8262 14.6977H35.6709V8.73089H37.8262ZM36.5976 13.8539H37.7226C38.0011 13.8705 38.2797 13.8249 38.5382 13.7203C38.7967 13.6157 39.0287 13.4547 39.2172 13.2491C39.4057 13.0436 39.546 12.7986 39.6278 12.532C39.7097 12.2653 39.7311 11.9838 39.6904 11.7079C39.7281 11.4331 39.7046 11.1533 39.6215 10.8886C39.5383 10.624 39.3977 10.381 39.2096 10.177C39.0216 9.9731 38.7907 9.81329 38.5337 9.70905C38.2766 9.60481 37.9996 9.55873 37.7226 9.5741H36.5976V13.8539Z" fill="white"/>
<path d="M41.6805 12.4443C41.6521 12.1484 41.686 11.8498 41.7798 11.5677C41.8737 11.2857 42.0254 11.0263 42.2254 10.8063C42.4253 10.5864 42.669 10.4106 42.9409 10.2903C43.2127 10.17 43.5067 10.1079 43.804 10.1079C44.1013 10.1079 44.3952 10.17 44.6671 10.2903C44.939 10.4106 45.1827 10.5864 45.3826 10.8063C45.5825 11.0263 45.7343 11.2857 45.8281 11.5677C45.922 11.8498 45.9558 12.1484 45.9275 12.4443C45.9564 12.7405 45.9229 13.0395 45.8293 13.322C45.7357 13.6045 45.5841 13.8644 45.3841 14.0848C45.1841 14.3052 44.9402 14.4813 44.6681 14.6019C44.3959 14.7224 44.1016 14.7847 43.804 14.7847C43.5064 14.7847 43.212 14.7224 42.9399 14.6019C42.6678 14.4813 42.4239 14.3052 42.2239 14.0848C42.0239 13.8644 41.8722 13.6045 41.7786 13.322C41.6851 13.0395 41.6516 12.7405 41.6805 12.4443ZM45.0135 12.4443C45.0135 11.4682 44.575 10.8974 43.8055 10.8974C43.033 10.8974 42.5985 11.4682 42.5985 12.4443C42.5985 13.4282 43.033 13.9946 43.8055 13.9946C44.575 13.9946 45.0135 13.4243 45.0135 12.4443H45.0135Z" fill="white"/>
<path d="M51.5732 14.6978H50.6514L49.7207 11.3813H49.6504L48.7236 14.6978H47.8105L46.5693 10.1948H47.4707L48.2773 13.6308H48.3438L49.2695 10.1948H50.1221L51.0479 13.6308H51.1182L51.9209 10.1948H52.8096L51.5732 14.6978Z" fill="white"/>
<path d="M53.8535 10.1949H54.709V10.9102H54.7754C54.888 10.6533 55.0781 10.4379 55.3189 10.2941C55.5598 10.1503 55.8395 10.0852 56.1191 10.1079C56.3382 10.0915 56.5582 10.1245 56.7628 10.2046C56.9674 10.2847 57.1514 10.4098 57.3011 10.5707C57.4508 10.7315 57.5623 10.924 57.6275 11.1338C57.6927 11.3436 57.7099 11.5654 57.6777 11.7827V14.6977H56.7891V12.0059C56.7891 11.2823 56.4746 10.9224 55.8174 10.9224C55.6686 10.9155 55.5201 10.9408 55.3821 10.9966C55.244 11.0525 55.1197 11.1375 55.0175 11.2459C54.9154 11.3543 54.8379 11.4834 54.7904 11.6246C54.7429 11.7657 54.7264 11.9154 54.7422 12.0635V14.6978H53.8535L53.8535 10.1949Z" fill="white"/>
<path d="M59.0938 8.43701H59.9824V14.6978H59.0938V8.43701Z" fill="white"/>
<path d="M61.2175 12.4444C61.1893 12.1484 61.2231 11.8499 61.317 11.5678C61.4109 11.2857 61.5626 11.0263 61.7626 10.8064C61.9626 10.5864 62.2063 10.4106 62.4782 10.2903C62.75 10.17 63.044 10.1079 63.3413 10.1079C63.6386 10.1079 63.9326 10.17 64.2045 10.2903C64.4764 10.4106 64.7201 10.5864 64.92 10.8064C65.12 11.0263 65.2718 11.2857 65.3656 11.5678C65.4595 11.8499 65.4934 12.1484 65.4651 12.4444C65.4939 12.7406 65.4604 13.0396 65.3668 13.3221C65.2732 13.6046 65.1215 13.8645 64.9215 14.0849C64.7215 14.3053 64.4776 14.4814 64.2054 14.6019C63.9333 14.7225 63.639 14.7847 63.3413 14.7847C63.0437 14.7847 62.7493 14.7225 62.4772 14.6019C62.2051 14.4814 61.9612 14.3053 61.7612 14.0849C61.5611 13.8645 61.4095 13.6046 61.3158 13.3221C61.2222 13.0396 61.1887 12.7406 61.2175 12.4444ZM64.5505 12.4444C64.5505 11.4683 64.1121 10.8975 63.3425 10.8975C62.5701 10.8975 62.1355 11.4683 62.1355 12.4444C62.1355 13.4283 62.5701 13.9947 63.3425 13.9947C64.1121 13.9947 64.5505 13.4244 64.5505 12.4444H64.5505Z" fill="white"/>
<path d="M66.4009 13.4243C66.4009 12.6138 67.0044 12.1465 68.0757 12.0801L69.2954 12.0098V11.6211C69.2954 11.1455 68.981 10.877 68.3735 10.877C67.8774 10.877 67.5337 11.0591 67.4351 11.3774H66.5747C66.6655 10.604 67.3931 10.1079 68.4146 10.1079C69.5435 10.1079 70.1802 10.6699 70.1802 11.6211V14.6978H69.3247V14.0649H69.2544C69.1117 14.2919 68.9113 14.477 68.6737 14.6012C68.436 14.7254 68.1697 14.7843 67.9019 14.7719C67.7128 14.7916 67.5218 14.7714 67.341 14.7127C67.1602 14.654 66.9938 14.5581 66.8524 14.4311C66.711 14.3042 66.5977 14.149 66.52 13.9756C66.4422 13.8021 66.4016 13.6144 66.4009 13.4243ZM69.2954 13.0395V12.6631L68.1958 12.7334C67.5757 12.7749 67.2944 12.9858 67.2944 13.3828C67.2944 13.7881 67.646 14.0239 68.1294 14.0239C68.2711 14.0382 68.4142 14.0239 68.5502 13.9819C68.6862 13.9398 68.8123 13.8707 68.9211 13.7789C69.0299 13.6871 69.1191 13.5743 69.1834 13.4473C69.2477 13.3202 69.2858 13.1816 69.2954 13.0395Z" fill="white"/>
<path d="M71.3481 12.4444C71.3481 11.0215 72.0796 10.1201 73.2173 10.1201C73.4987 10.1072 73.778 10.1746 74.0225 10.3145C74.267 10.4544 74.4667 10.661 74.5981 10.9101H74.6646V8.43701H75.5532V14.6978H74.7017V13.9863H74.6314C74.4897 14.2338 74.2831 14.4378 74.0339 14.5763C73.7846 14.7148 73.5022 14.7825 73.2173 14.772C72.0718 14.772 71.3481 13.8706 71.3481 12.4444ZM72.2661 12.4444C72.2661 13.3994 72.7163 13.9741 73.4693 13.9741C74.2183 13.9741 74.6812 13.3911 74.6812 12.4483C74.6812 11.5098 74.2134 10.9185 73.4693 10.9185C72.7212 10.9185 72.2661 11.4971 72.2661 12.4444H72.2661Z" fill="white"/>
<path d="M79.23 12.4444C79.23 11.0215 79.9614 10.1201 81.0991 10.1201C81.3805 10.1072 81.6598 10.1746 81.9044 10.3145C82.1489 10.4544 82.3485 10.661 82.48 10.9101H82.5464V8.43701H83.4351V14.6978H82.5835V13.9863H82.5132C82.3716 14.2338 82.165 14.4378 81.9157 14.5763C81.6665 14.7148 81.3841 14.7825 81.0991 14.772C79.9536 14.772 79.23 13.8706 79.23 12.4444ZM80.148 12.4444C80.148 13.3994 80.5982 13.9741 81.3511 13.9741C82.1001 13.9741 82.563 13.3911 82.563 12.4483C82.563 11.5098 82.0952 10.9185 81.3511 10.9185C80.603 10.9185 80.148 11.4971 80.148 12.4444Z" fill="white"/>
<path d="M84.7769 8.86336C84.77 8.74826 84.7979 8.63375 84.8569 8.53467C84.9159 8.43559 85.0032 8.3565 85.1077 8.30765C85.2121 8.2588 85.3288 8.24243 85.4427 8.26067C85.5565 8.27891 85.6623 8.33091 85.7462 8.40995C85.8302 8.48898 85.8885 8.59141 85.9135 8.70395C85.9386 8.8165 85.9293 8.93398 85.8869 9.04118C85.8444 9.14838 85.7707 9.24035 85.6754 9.3052C85.58 9.37004 85.4674 9.40476 85.3521 9.40486C85.2784 9.40862 85.2047 9.39743 85.1354 9.37198C85.0662 9.34653 85.0028 9.30733 84.949 9.25675C84.8953 9.20617 84.8524 9.14525 84.8228 9.07764C84.7932 9.01004 84.7776 8.93715 84.7769 8.86336ZM84.9087 10.1949H85.7945V14.6978H84.9087V10.1949Z" fill="white"/>
</g>
<defs>
<clipPath id="clip0">
<rect width="119.664" height="40" fill="white"/>
</clipPath>
</defs>
</svg>
